{"title":"Katy Perry - Unconditionally [Music Video] 1080p [Sbyky]","uid":9240723,"size":105841437,"categoryP":"video","categoryS":"music_videos","magnet":"?xt=urn:btih:2cc92f542d04c397f4cd0b2a6892e2a172d88fb9&amp;dn=Katy+Perry+-+Unconditionally+%5BMusic+Video%5D+1080p+%5BSbyky%5D&amp;tr=udp%3A%2F%2Ftracker.openbittorrent.com%3A80&amp;tr=udp%3A%2F%2Fopen.demonii.com%3A1337&amp;tr=udp%3A%2F%2Ftracker.coppersurfer.tk%3A6969&amp;tr=udp%3A%2F%2Fexodus.desync.com%3A6969","seeders":7,"leechers":2,"uploader":"Sbyky","files":1,"time":1385268661,"description":"\n\nGeneral\nComplete name                            : Katy Perry - Unconditionally [Music Video] 1080p [Sbyky].MP4\nFormat                                   : MPEG-4\nFormat profile                           : Base Media\nCodec ID                                 : isom\nFile size                                : 101 MiB\nDuration                                 : 3mn 56s\nOverall bit rate mode                    : Variable\nOverall bit rate                         : 3 576 Kbps\nEncoded date                             : UTC 2013-11-20 05:52:21\nTagged date                              : UTC 2013-11-20 05:52:21\n\nVideo\nID                                       : 1\nFormat                                   : AVC\nFormat/Info                              : Advanced Video Codec\nFormat profile                           : &lt;a class=&quot;__cf_email__&quot; href=&quot;/cdn-cgi/l/email-protection&quot; data-cfemail=&quot;ace4c5cbc4ece098829c&quot;&gt;[email&amp;#160;protected]&lt;/a&gt;&lt;script cf-hash='f9e31' type=&quot;text/javascript&quot;&gt;\n/* &lt;![CDATA[ */!function(){try{var t=&quot;currentScript&quot;in document?document.currentScript:function(){for(var t=document.getElementsByTagName(&quot;script&quot;),e=t.length;e--;)if(t[e].getAttribute(&quot;cf-hash&quot;))return t[e]}();if(t&amp;&amp;t.previousSibling){var e,r,n,i,c=t.previousSibling,a=c.getAttribute(&quot;data-cfemail&quot;);if(a){for(e=&quot;&quot;,r=parseInt(a.substr(0,2),16),n=2;a.length-n;n+=2)i=parseInt(a.substr(n,2),16)^r,e+=String.fromCharCode(i);e=document.createTextNode(e),c.parentNode.replaceChild(e,c)}}}catch(u){}}();/* ]]&gt; */&lt;/script&gt;\nFormat settings, CABAC                   : Yes\nFormat settings, ReFrames                : 3 frames\nCodec ID                                 : avc1\nCodec ID/Info                            : Advanced Video Coding\nDuration                                 : 3mn 56s\nDuration_LastFrame                       : -42ms\nBit rate                                 : 3 320 Kbps\nWidth                                    : 1 920 pixels\nHeight                                   : 1 080 pixels\nDisplay aspect ratio                     : 16:9\nFrame rate mode                          : Constant\nFrame rate                               : 23.976 fps\nColor space                              : YUV\nChroma subsampling                       : 4:2:0\nBit depth                                : 8 bits\nScan type                                : Progressive\nBits/(Pixel*Frame)                       : 0.067\nStream size                              : 93.7 MiB (93%)\nEncoded date                             : UTC 2013-11-20 05:52:21\nTagged date                              : UTC 2013-11-20 05:52:21\n\nAudio\nID                                       : 2\nFormat                                   : AAC\nFormat/Info                              : Advanced Audio Codec\nFormat profile                           : LC\nCodec ID                                 : 40\nDuration                                 : 3mn 56s\nBit rate mode                            : Variable\nBit rate                                 : 254 Kbps\nChannel(s)                               : 2 channels\nChannel positions                        : Front: L R\nSampling rate                            : 44.1 KHz\nCompression mode                         : Lossy\nDelay relative to video                  : 42ms\nStream size                              : 7.16 MiB (7%)\nEncoded date                             : UTC 2013-11-20 05:50:23\nTagged date                              : UTC 2013-11-20 05:50:23\n\nShared By Sbyky\n","torrent":{"xt":"urn:btih:2cc92f542d04c397f4cd0b2a6892e2a172d88fb9","amp;dn":"Katy+Perry+-+Unconditionally+%5BMusic+Video%5D+1080p+%5BSbyky%5D","amp;tr":["udp%3A%2F%2Ftracker.openbittorrent.com%3A80","udp%3A%2F%2Fopen.demonii.com%3A1337","udp%3A%2F%2Ftracker.coppersurfer.tk%3A6969","udp%3A%2F%2Fexodus.desync.com%3A6969"],"infoHash":"2cc92f542d04c397f4cd0b2a6892e2a172d88fb9","infoHashBuffer":{"type":"Buffer","data":[44,201,47,84,45,4,195,151,244,205,11,42,104,146,226,161,114,216,143,185]},"announce":[],"urlList":[]}}